<?xml version="1.0" encoding="UTF-8"?>
<svg xmlns="http://www.w3.org/2000/svg" xmlns:xlink="http://www.w3.org/1999/xlink" width="1920" height="1080" viewBox="0 0 1920 1080">
<defs>
<g>
<g id="glyph-0-0">
<path d="M 6.9375 0 L 4.058594 0 L 4.058594 -0.347656 C 4.3125 -0.363281 4.523438 -0.394531 4.691406 -0.445312 C 4.859375 -0.492188 4.941406 -0.554688 4.941406 -0.625 C 4.941406 -0.65625 4.9375 -0.691406 4.933594 -0.734375 C 4.925781 -0.773438 4.917969 -0.8125 4.902344 -0.84375 L 4.328125 -2.398438 L 1.898438 -2.398438 C 1.804688 -2.167969 1.730469 -1.972656 1.675781 -1.800781 C 1.617188 -1.632812 1.566406 -1.476562 1.519531 -1.332031 C 1.476562 -1.191406 1.449219 -1.078125 1.433594 -0.992188 C 1.417969 -0.902344 1.40625 -0.832031 1.40625 -0.777344 C 1.40625 -0.644531 1.511719 -0.546875 1.714844 -0.472656 C 1.921875 -0.402344 2.152344 -0.359375 2.410156 -0.347656 L 2.410156 0 L -0.199219 0 L -0.199219 -0.347656 C -0.117188 -0.351562 -0.0078125 -0.371094 0.117188 -0.402344 C 0.242188 -0.433594 0.347656 -0.476562 0.429688 -0.527344 C 0.558594 -0.613281 0.660156 -0.707031 0.734375 -0.804688 C 0.804688 -0.898438 0.875 -1.03125 0.941406 -1.203125 C 1.289062 -2.070312 1.675781 -3.046875 2.09375 -4.132812 C 2.515625 -5.214844 2.890625 -6.179688 3.21875 -7.027344 L 3.609375 -7.027344 L 5.917969 -1.050781 C 5.96875 -0.921875 6.023438 -0.820312 6.085938 -0.742188 C 6.144531 -0.664062 6.230469 -0.585938 6.34375 -0.511719 C 6.417969 -0.46875 6.515625 -0.429688 6.636719 -0.398438 C 6.757812 -0.367188 6.855469 -0.351562 6.9375 -0.347656 L 6.9375 0 M 4.152344 -2.832031 L 3.101562 -5.519531 L 2.066406 -2.832031 Z "/>
</g>
<g id="glyph-0-1">
<path d="M 2.6875 0 L 0.359375 0 L 0.359375 -0.320312 C 0.4375 -0.328125 0.511719 -0.335938 0.59375 -0.34375 C 0.671875 -0.347656 0.742188 -0.359375 0.800781 -0.378906 C 0.890625 -0.410156 0.960938 -0.460938 1.003906 -0.535156 C 1.046875 -0.609375 1.070312 -0.703125 1.070312 -0.820312 L 1.070312 -3.789062 C 1.070312 -3.894531 1.046875 -3.988281 1 -4.074219 C 0.953125 -4.160156 0.886719 -4.234375 0.800781 -4.292969 C 0.738281 -4.332031 0.648438 -4.363281 0.53125 -4.390625 C 0.414062 -4.417969 0.308594 -4.4375 0.210938 -4.445312 L 0.210938 -4.765625 L 1.910156 -4.875 L 1.976562 -4.804688 L 1.976562 -0.878906 C 1.976562 -0.765625 2 -0.671875 2.042969 -0.59375 C 2.085938 -0.519531 2.15625 -0.464844 2.25 -0.429688 C 2.320312 -0.398438 2.390625 -0.375 2.457031 -0.359375 C 2.527344 -0.339844 2.601562 -0.328125 2.6875 -0.320312 L 2.6875 0 M 2.074219 -6.773438 C 2.074219 -6.585938 2.015625 -6.425781 1.890625 -6.285156 C 1.769531 -6.148438 1.621094 -6.078125 1.441406 -6.078125 C 1.273438 -6.078125 1.128906 -6.144531 1.007812 -6.277344 C 0.886719 -6.410156 0.824219 -6.558594 0.824219 -6.726562 C 0.824219 -6.90625 0.886719 -7.0625 1.007812 -7.195312 C 1.128906 -7.332031 1.273438 -7.398438 1.441406 -7.398438 C 1.625 -7.398438 1.777344 -7.335938 1.898438 -7.210938 C 2.015625 -7.085938 2.074219 -6.9375 2.074219 -6.773438 Z "/>
</g>
<g id="glyph-0-2">
<path d="M 4.039062 -4.195312 C 4.039062 -4.027344 3.996094 -3.882812 3.914062 -3.753906 C 3.835938 -3.625 3.710938 -3.558594 3.539062 -3.558594 C 3.359375 -3.558594 3.21875 -3.605469 3.121094 -3.703125 C 3.027344 -3.796875 2.976562 -3.898438 2.976562 -4.015625 C 2.976562 -4.085938 2.984375 -4.148438 2.996094 -4.210938 C 3.007812 -4.265625 3.015625 -4.328125 3.027344 -4.382812 C 2.875 -4.382812 2.695312 -4.324219 2.492188 -4.199219 C 2.285156 -4.074219 2.109375 -3.898438 1.96875 -3.671875 L 1.96875 -0.867188 C 1.96875 -0.753906 1.988281 -0.664062 2.035156 -0.589844 C 2.078125 -0.519531 2.148438 -0.464844 2.242188 -0.429688 C 2.324219 -0.398438 2.425781 -0.371094 2.554688 -0.355469 C 2.683594 -0.339844 2.796875 -0.328125 2.890625 -0.320312 L 2.890625 0 L 0.351562 0 L 0.351562 -0.320312 C 0.425781 -0.328125 0.503906 -0.335938 0.582031 -0.34375 C 0.664062 -0.347656 0.734375 -0.359375 0.789062 -0.378906 C 0.882812 -0.410156 0.949219 -0.460938 0.992188 -0.535156 C 1.039062 -0.609375 1.058594 -0.703125 1.058594 -0.820312 L 1.058594 -3.789062 C 1.058594 -3.890625 1.035156 -3.988281 0.988281 -4.085938 C 0.941406 -4.183594 0.875 -4.261719 0.789062 -4.320312 C 0.730469 -4.359375 0.65625 -4.390625 0.570312 -4.40625 C 0.488281 -4.425781 0.394531 -4.4375 0.296875 -4.445312 L 0.296875 -4.765625 L 1.898438 -4.875 L 1.96875 -4.804688 L 1.96875 -4.125 L 1.992188 -4.125 C 2.195312 -4.390625 2.417969 -4.589844 2.664062 -4.726562 C 2.914062 -4.863281 3.140625 -4.929688 3.34375 -4.929688 C 3.550781 -4.929688 3.714844 -4.863281 3.84375 -4.730469 C 3.972656 -4.597656 4.039062 -4.417969 4.039062 -4.195312 Z "/>
</g>
</g>
</defs>
<g fill="rgb(100%, 100%, 100%)" fill-opacity="1">
<use xlink:href="#glyph-0-0" x="30" y="29.169922"/>
<use xlink:href="#glyph-0-1" x="37" y="29.169922"/>
<use xlink:href="#glyph-0-2" x="40" y="29.169922"/>
</g>
</svg>
